<?xml version="1.0" encoding="iso-8859-1"?>
<!-- Uploaded to: SVG Repo, www.svgrepo.com, Generator: SVG Repo Mixer Tools -->
<svg height="800px" width="800px" version="1.1" id="Layer_1" xmlns="http://www.w3.org/2000/svg" xmlns:xlink="http://www.w3.org/1999/xlink" 
	 viewBox="0 0 508 508" xml:space="preserve">
<path style="fill:#FF4518;" d="M504,378.4c0,68.8-56.4,125.6-125.2,125.6H129.2C60.4,504,4,447.6,4,378.4V128.8C4,60,60.4,4,129.2,4
	h249.6C447.6,4,504,60,504,128.8V378.4z"/>
<g>
	<path style="fill:#FFFFFF;" d="M234,301.6v-94.8c0-8.8,3.2-19.2,19.2-19.2s20.4,10.4,20.4,19.2v18l18.4,10l29.2-10v-18
		c0-37.2-29.2-67.2-67.6-67.2s-67.2,30-67.2,67.2v94.4c0,8.8-6,19.6-20,19.6s-20-10.8-20-19.6V262H99.2v39.2
		c0,37.2,30.4,67.2,68.8,67.2c38.4-0.4,66-30.4,66-67.6"/>
	<path style="fill:#FFFFFF;" d="M361.2,300.8c0,8.8-5.2,19.6-20,19.6c-14.4,0-20-10.8-20-19.6v-37.6l-28.8,10l-18.4-9.6v38.8
		c0,37.2,27.2,66,65.6,66s69.2-30,69.2-67.2V262h-47.6V300.8z"/>
</g>
<path d="M378.8,508H129.2C58,508,0,450,0,378.8V129.6C0,58,58,0,129.2,0h249.6C450,0,508,58,508,129.6v249.6
	C508,450,450,508,378.8,508z M129.2,8C62.4,8,8,62.4,8,129.6v249.6C8,446,62.4,500,129.2,500h249.6c66.8,0,121.2-54.4,121.2-120.8
	V129.6C500,62.8,445.6,8,378.8,8C378.8,8,129.2,8,129.2,8z"/>
<path d="M370,484H138c-62,0-114-52-114-114V138C24,76.4,76,24,138,24h231.2c2.4,0,4,1.6,4,4s-1.6,4-4,4H138
	C80.4,32,32,80.4,32,138.4v232c0,57.6,48.8,106,106,106h232c57.6,0,106-48.4,106-106V258c0-2.4,1.6-4,4-4s4,1.6,4,4v112.4
	C484,432,432,484,370,484z"/>
<path d="M446.8,65.2c-1.2,0-2-0.4-2.8-1.2c-20.4-20.4-48-32.4-75.2-32.4c-2.4,0-4-1.6-4-4s1.6-4,4-4c29.2,0,58.8,12.8,80.8,34.4
	c1.6,1.6,1.6,4,0,5.6C449.2,64.8,448,65.2,446.8,65.2z"/>
<path d="M480,234c-2.4,0-4-1.6-4-4v-59.2c0-2.4,1.6-4,4-4s4,1.6,4,4V230C484,232.4,482.4,234,480,234z"/>
<path d="M339.6,372c-40,0-69.6-30-69.6-69.6v-38.8c0-1.2,0.8-2.8,2-3.6c1.2-0.8,2.8-0.8,4,0l18.8,9.2c2,0.8,2.8,3.2,2,5.2
	s-3.2,2.8-5.2,2L278,270v32.4c0,36,26,62,61.6,62c36,0,65.2-28.4,65.2-63.2V266h-39.6v35.2c0,11.2-7.6,23.6-24,23.6s-24-12-24-23.6
	V262c0-2.4,1.6-4,4-4s4,1.6,4,4v39.2c0,7.2,4,15.6,16,15.6c11.6,0,16-8.4,16-15.6V262c0-2.4,1.6-4,4-4h47.6c2.4,0,4,1.6,4,4v39.2
	C412.8,340.4,380,372,339.6,372z M168,372c-40,0-72.8-32-72.8-71.2V262c0-2.4,1.6-4,4-4h47.6c2.4,0,4,1.6,4,4v39.2
	c0,5.2,3.2,15.6,16,15.6c12.4,0,16-10.4,16-15.6v-94.4c0-40,31.2-71.2,71.2-71.2s71.6,31.2,71.6,71.2v19.6c0,2.4-1.6,4-4,4
	s-4-1.6-4-4v-19.6c0-35.6-28-63.2-63.6-63.2s-63.2,27.6-63.2,63.2v94.4c0,11.6-8,23.6-24,23.6c-15.6,0-24-12-24-23.6V266h-39.6v35.2
	c0,34.8,29.2,63.2,64.8,63.2c35.2,0,62-27.2,62-63.2v-94.4c0-14.8,8.4-23.2,23.2-23.2c15.2,0,24.4,8.8,24.4,23.2v15.6l16.4,10
	c2,1.2,2.4,3.6,1.2,5.6c-1.2,2-3.6,2.4-5.6,1.2l-18.4-10.8c-0.8-1.2-1.2-2.4-1.2-3.6v-18c0-6.8-2.8-15.2-16.4-15.2
	c-10.4,0-15.2,4.8-15.2,15.2v94.4C238,341.6,208,372,168,372z"/>
</svg>